<!-- Generated by IcoMoon.io -->
<svg version="1.1" xmlns="http://www.w3.org/2000/svg" width="32" height="32" viewBox="0 0 32 32" fill="#483d8b">
<title>select-all</title>
<path d="M15 32c0.072 0 0.144-0.008 0.217-0.024 0.458-0.102 0.783-0.507 0.783-0.976v-15h15c0.469 0 0.875-0.326 0.976-0.783s-0.129-0.925-0.553-1.123l-30-14c-0.381-0.178-0.833-0.098-1.13 0.199s-0.377 0.749-0.199 1.13l14 30c0.167 0.358 0.524 0.577 0.906 0.577zM26.492 14h-11.492c-0.552 0-1 0.448-1 1v11.492l-10.931-23.423 23.423 10.931z"></path>
</svg>
